<?xml version="1.0" encoding="UTF-8"?>
<svg width="180px" height="180px" viewBox="0 0 180 180" version="1.1" xmlns="http://www.w3.org/2000/svg" xmlns:xlink="http://www.w3.org/1999/xlink">
    <!-- Generator: Sketch 63.1 (92452) - https://sketch.com -->
    <title>mark</title>
    <desc>Created with Sketch.</desc>
    <g id="mark" stroke="none" stroke-width="1" fill="none" fill-rule="evenodd">
        <path d="M139.962894,0.048187306 C151.029082,0.048187306 160,9.01910512 160,20.0852931 L160,20.0852931 L160,159.914626 C160,163.974522 158.766711,167.938642 156.463472,171.281971 C150.185461,180.394988 137.708566,182.693215 128.595549,176.415203 L128.595549,176.415203 L108.059063,162.268406 C120.953499,141.918849 128.435889,117.684845 128.435889,91.6727977 C128.435889,64.8049321 120.453045,39.8340325 106.768848,19.0813257 L128.361725,3.74826527 C131.751302,1.34127586 135.805632,0.048187306 139.962894,0.048187306 Z M93.8240345,28.2750385 C105.719787,46.4220912 112.653834,68.2235746 112.653834,91.6727977 C112.653834,114.34768 106.170179,135.48185 94.986197,153.260918 L81.9109321,144.254174 C91.3858339,129.046048 96.8717783,111.011236 96.8717783,91.6727977 C96.8717783,71.6415707 90.9857317,53.0090469 80.8773442,37.4679082 Z M67.9294608,46.6621544 C76.2511048,59.5964317 81.0897229,75.0597135 81.0897229,91.6727977 C81.0897229,107.67464 76.6006073,122.609733 68.8337779,135.245574 L55.7534671,126.233556 C61.8139037,116.172352 65.3076675,104.337687 65.3076675,91.6727977 C65.3076675,78.4777285 61.515268,66.1838485 54.9789322,55.8578813 Z M42.0239503,65.057681 C46.7773535,72.7722794 49.5256121,81.8960037 49.5256121,91.6727977 C49.5256121,101.000869 47.0238366,109.734442 42.6657043,117.216857 L28.6475582,107.560443 C26.7171606,106.230581 25.035093,104.572299 23.6778758,102.661035 C17.2707269,93.6383437 19.3910429,81.1299867 28.4137342,74.7228378 L28.4137342,74.7228378 Z" id="Combined-Shape" fill="#FF754F"></path>
    </g>
</svg>